Coordinates
version=1
nRows=14
nColumns=46
inDegrees=yes

Units are S.I. units (second, meters, Newtons, ...)
Angles are in degrees.

endheader
time	pelvis_tilt	pelvis_list	pelvis_rotation	pelvis_tx	pelvis_ty	pelvis_tz	bb_angle	bb_tx	bb_ty	bb_tz	hip_flexion_r	hip_adduction_r	hip_rotation_r	knee_angle_r	knee_angle_r_beta	ankle_angle_r	subtalar_angle_r	mtp_angle_r	crank_angle_r	hip_flexion_l	hip_adduction_l	hip_rotation_l	knee_angle_l	knee_angle_l_beta	ankle_angle_l	subtalar_angle_l	mtp_angle_l	crank_angle_l	lumbar_extension	lumbar_bending	lumbar_rotation	arm_flex_r	arm_add_r	arm_rot_r	elbow_flex_r	pro_sup_r	wrist_flex_r	wrist_dev_r	arm_flex_l	arm_add_l	arm_rot_l	elbow_flex_l	pro_sup_l	wrist_flex_l	wrist_dev_l
      2.50500000	    -25.28287617	     -0.89435081	     20.61435092	      0.47905828	      1.16505391	     -0.18546131	      0.00000000	      0.50000000	      0.00000000	      0.25000000	     36.81357632	     -6.84010659	     -6.51905049	     63.99109401	      1.11685528	    -31.17849220	    -15.32688494	      0.00000000	      0.00000000	     58.85898816	      5.78482413	     10.74184962	     62.80735749	      1.09619518	     11.15610042	      2.42089759	      0.00000000	      0.00000000	    -54.98936101	      0.69696113	    -22.62299705	     59.24409212	     -7.84311421	     55.55411787	     36.84221800	     58.01739388	      0.00000000	      0.00000000	     45.25168237	    -34.23234363	     24.23894832	     86.97912049	     54.87556268	      0.00000000	      0.00000000
      2.51000000	    -24.73415675	     -1.46956302	     19.95504683	      0.47938535	      1.16304686	     -0.18419235	      0.00000000	      0.50000000	      0.00000000	      0.25000000	     37.58086869	     -5.82201846	     -6.41867290	     66.60853955	      1.16253833	    -30.08296942	    -15.84687426	      0.00000000	      0.00000000	     57.45595278	      4.67455512	     11.24855673	     60.80817237	      1.06130282	     10.21681746	      2.50369094	      0.00000000	      0.00000000	    -55.10034460	      0.92325541	    -21.88853563	     59.41705488	     -7.67060870	     55.61799799	     36.83977269	     58.03331226	      0.00000000	      0.00000000	     44.88809114	    -34.69433501	     24.09496970	     86.99182287	     54.86144269	      0.00000000	      0.00000000
      2.51500000	    -24.58000553	     -1.96125485	     19.48868289	      0.47908095	      1.16026475	     -0.18407981	      0.00000000	      0.50000000	      0.00000000	      0.25000000	     38.77534731	     -5.32037792	     -6.43950592	     69.41863443	      1.21158373	    -28.50400603	    -15.59834713	      0.00000000	      0.00000000	     56.38381723	      4.10824792	     11.90504379	     58.78511284	      1.02599377	      8.78041804	      1.80213201	      0.00000000	      0.00000000	    -54.83483338	      1.34301619	    -22.04787858	     59.80231763	     -6.94801093	     55.97923745	     36.51268145	     58.08923652	      0.00000000	      0.00000000	     43.42955231	    -36.26665375	     23.33975403	     88.17701245	     54.95612646	      0.00000000	      0.00000000
      2.52000000	    -24.13024284	     -2.61478256	     18.96075606	      0.47920926	      1.15768487	     -0.18374816	      0.00000000	      0.50000000	      0.00000000	      0.25000000	     39.63702885	     -4.55043491	     -6.75795462	     72.09311476	      1.25826222	    -27.13342709	    -16.26975767	      0.00000000	      0.00000000	     55.10623177	      3.16990413	     12.42020782	     56.93640127	      0.99372767	      7.61525544	      1.46756676	      0.00000000	      0.00000000	    -54.78131978	      1.84426631	    -21.45711100	     59.83470518	     -6.50580613	     56.30311732	     36.60846966	     58.16946650	      0.00000000	      0.00000000	     42.79494676	    -36.91485118	     23.02676621	     88.35788675	     54.95316978	      0.00000000	      0.00000000
      2.52500000	    -24.01009270	     -3.23787711	     18.30435661	      0.47884056	      1.15450563	     -0.18362366	      0.00000000	      0.50000000	      0.00000000	      0.25000000	     40.94880243	     -3.89926662	     -6.84607304	     74.86598814	      1.30665799	    -25.60592308	    -16.33452416	      0.00000000	      0.00000000	     54.20443419	      2.28840680	     12.85006368	     55.20918183	      0.96358200	      6.27927688	      0.86156648	      0.00000000	      0.00000000	    -54.49894247	      2.61629133	    -23.39367192	     61.94556216	     -3.22998607	     60.51350637	     33.43397924	     58.64777660	      0.00000000	      0.00000000	     37.00523186	    -40.47603449	     17.43768775	     92.85697278	     54.91638607	      0.00000000	      0.00000000
      2.53000000	    -23.85323043	     -3.93225590	     17.47367504	      0.47859512	      1.15139374	     -0.18337319	      0.00000000	      0.50000000	      0.00000000	      0.25000000	     42.23973825	     -3.03639562	     -6.85241827	     77.54962084	      1.35349622	    -24.03714492	    -16.54105287	      0.00000000	      0.00000000	     53.17870665	      1.21756328	     13.21988087	     53.46539228	      0.93314713	      5.05739177	      0.14133863	      0.00000000	      0.00000000	    -54.14131813	      2.85353014	    -22.63599371	     62.03698980	     -3.18624224	     60.61929685	     33.55835939	     58.69346409	      0.00000000	      0.00000000	     36.39096394	    -41.17647475	     17.39030322	     92.78400370	     54.89355186	      0.00000000	      0.00000000
      2.53500000	    -23.56376459	     -4.65291585	     16.72849170	      0.47849327	      1.14867501	     -0.18330527	      0.00000000	      0.50000000	      0.00000000	      0.25000000	     43.32655430	     -2.20262345	     -7.04818508	     80.14269297	      1.39875386	    -22.58889788	    -17.14108075	      0.00000000	      0.00000000	     51.83737372	      0.16795950	     13.78895685	     51.55198777	      0.89975192	      4.24212996	     -0.20016549	      0.00000000	      0.00000000	    -53.95198276	      3.29088358	    -21.76567460	     62.17258627	     -3.12166334	     60.66537641	     33.67891923	     58.71907934	      0.00000000	      0.00000000	     35.93650717	    -41.64457980	     17.29411964	     92.69840094	     54.87437018	      0.00000000	      0.00000000
      2.54000000	    -23.59351253	     -5.17473021	     15.55313892	      0.47800459	      1.14553335	     -0.18296955	      0.00000000	      0.50000000	      0.00000000	      0.25000000	     44.87040947	     -1.32304921	     -6.63295277	     82.85901580	      1.44616264	    -20.61582337	    -16.66335950	      0.00000000	      0.00000000	     50.79718201	     -0.98161449	     13.84265274	     49.78442555	      0.86890214	      2.79742009	     -1.50594072	      0.00000000	      0.00000000	    -53.48575038	      3.24833479	    -21.10727231	     62.26565216	     -3.01143110	     61.03062476	     34.14035781	     58.86468781	      0.00000000	      0.00000000	     34.79690100	    -42.79585076	     16.85157271	     92.95584025	     54.87629486	      0.00000000	      0.00000000
      2.54500000	    -23.39730659	     -5.81337888	     14.85157618	      0.47780152	      1.14328847	     -0.18319155	      0.00000000	      0.50000000	      0.00000000	      0.25000000	     46.02153144	     -0.59270797	     -6.77672300	     85.30570304	      1.48886539	    -19.20939653	    -17.25201127	      0.00000000	      0.00000000	     49.49767972	     -2.02549710	     14.35307417	     47.90599252	      0.83611730	      1.88754654	     -1.22160545	      0.00000000	      0.00000000	    -53.33620780	      3.78780316	    -20.25549835	     62.47089454	     -2.89684499	     61.09870393	     34.28346475	     58.89586948	      0.00000000	      0.00000000	     34.29296144	    -43.23425779	     16.71681472	     92.91794638	     54.86308842	      0.00000000	      0.00000000
      2.55000000	    -23.52048422	     -6.44050633	     13.56020371	      0.47745162	      1.14042907	     -0.18283698	      0.00000000	      0.50000000	      0.00000000	      0.25000000	     47.64992808	      0.47627131	     -6.37490462	     87.80242739	      1.53244145	    -17.08583194	    -16.65110226	      0.00000000	      0.00000000	     48.52801711	     -3.49184599	     14.17970842	     46.16700628	      0.80576627	      0.69369650	     -1.44783197	      0.00000000	      0.00000000	    -53.01968654	      4.14115935	    -21.49248140	     64.19557327	     -0.80392213	     65.17258928	     33.01310627	     59.57843494	      0.00000000	      0.00000000	     27.67058099	    -45.83148521	     10.63617589	     96.58121533	     54.72158294	      0.00000000	      0.00000000
      2.55500000	    -23.63640050	     -7.28747835	     12.05240380	      0.47727189	      1.13780766	     -0.18303347	      0.00000000	      0.50000000	      0.00000000	      0.25000000	     49.25661840	      1.83736756	     -6.08788572	     90.05015902	      1.57167177	    -15.62149994	    -16.73240571	      0.00000000	      0.00000000	     47.39195823	     -5.10666684	     14.21033866	     44.36936830	      0.77439156	     -0.22868222	     -2.09593830	      0.00000000	      0.00000000	    -52.53250533	      4.34689133	    -20.20631542	     64.42094255	     -0.66808267	     65.37796650	     32.99895958	     59.61897865	      0.00000000	      0.00000000	     26.77527044	    -46.28589127	     10.63882238	     96.32016238	     54.68114341	      0.00000000	      0.00000000
      2.56000000	    -23.92605116	     -7.83768986	     10.48931495	      0.47697370	      1.13536176	     -0.18372882	      0.00000000	      0.50000000	      0.00000000	      0.25000000	     51.06909151	      2.73927385	     -5.66049847	     92.32730401	      1.61141544	    -14.17200084	    -16.19330942	      0.00000000	      0.00000000	     46.10456755	     -6.33220875	     14.11966488	     42.34912562	      0.73913168	     -1.33227557	     -3.39016888	      0.00000000	      0.00000000	    -52.08994248	      4.53852840	    -19.99875448	     65.59998194	      0.14020740	     68.28488171	     32.39730467	     60.18030347	      0.00000000	      0.00000000	     23.38454249	    -46.94458100	      7.74390739	     97.44682470	     54.43176189	      0.00000000	      0.00000000
      2.56500000	    -23.90798789	     -8.54864215	      9.34896728	      0.47655857	      1.13337492	     -0.18423799	      0.00000000	      0.50000000	      0.00000000	      0.25000000	     52.48877698	      3.61240396	     -5.80045197	     94.41462075	      1.64784599	    -12.96349028	    -16.56063628	      0.00000000	      0.00000000	     44.77700092	     -7.67177971	     14.23501864	     40.61152757	      0.70880487	     -1.98562678	     -3.36509623	      0.00000000	      0.00000000	    -51.87080129	      5.01207756	    -18.85610052	     65.87597127	      0.33916591	     68.20266357	     32.53359161	     60.15207283	      0.00000000	      0.00000000	     22.90640245	    -47.11924899	      7.74616078	     97.17165834	     54.37776773	      0.00000000	      0.00000000
      2.57000000	    -24.14242399	     -9.13247230	      7.48375252	      0.47638615	      1.13129758	     -0.18364644	      0.00000000	      0.50000000	      0.00000000	      0.25000000	     54.23058880	      5.00359249	     -5.29860295	     96.40114161	      1.68251732	    -11.71338122	    -16.10863300	      0.00000000	      0.00000000	     43.49863677	     -9.39998156	     13.42070647	     38.85134300	      0.67808385	     -3.24993405	     -4.08262352	      0.00000000	      0.00000000	    -51.38793411	      4.79413309	    -17.56033609	     66.00436142	      0.37706047	     68.50449103	     32.59050085	     60.21027020	      0.00000000	      0.00000000	     21.90467647	    -47.28665059	      7.67625016	     96.57592052	     54.27287651	      0.00000000	      0.00000000
